<svg width="52" height="52" viewBox="0 0 52 52" fill="none" xmlns="http://www.w3.org/2000/svg">
<rect width="52" height="52" rx="12" fill="#8AD8B7" fill-opacity="0.63"/>
<path d="M11.375 52L40.625 52C43.6418 52 46.5351 50.8016 48.6683 48.6683C50.8016 46.5351 52 43.6418 52 40.625V11.375C52 8.35816 50.8016 5.46489 48.6683 3.33166C46.5351 1.19843 43.6418 0 40.625 0L11.375 0C8.35816 0 5.46489 1.19843 3.33166 3.33166C1.19843 5.46489 0 8.35816 0 11.375L0 40.625C0 43.6418 1.19843 46.5351 3.33166 48.6683C5.46489 50.8016 8.35816 52 11.375 52ZM3.25 11.375C3.25 9.22012 4.10602 7.15349 5.62976 5.62976C7.15349 4.10602 9.22012 3.25 11.375 3.25L40.625 3.25C42.7799 3.25 44.8465 4.10602 46.3702 5.62976C47.894 7.15349 48.75 9.22012 48.75 11.375L48.75 40.625C48.75 42.7799 47.894 44.8465 46.3702 46.3702C44.8465 47.894 42.7799 48.75 40.625 48.75L11.375 48.75C9.22012 48.75 7.15349 47.894 5.62976 46.3702C4.10602 44.8465 3.25 42.7799 3.25 40.625L3.25 11.375Z" fill="#1C6758"/>
<path d="M27.1537 43.4037L38.5287 32.0287L36.2374 29.7374L27.6249 38.3337L27.6249 8.12493H24.3749L24.3749 38.3337L15.7787 29.7374L13.4874 32.0287L24.8624 43.4037C25.1669 43.7063 25.5788 43.8762 26.0081 43.8762C26.4374 43.8762 26.8492 43.7063 27.1537 43.4037Z" fill="#1C6758"/>
</svg>
