<svg width="1440" height="679" viewBox="0 0 1440 679" fill="none" xmlns="http://www.w3.org/2000/svg">
<path d="M385.5 338.5C191.5 387 19.5 604.5 0 678.5H1440V0C1440 0 1318 218 1087 303.5C856 389 579.5 290 385.5 338.5Z" fill="#DFE8DE"/>
<path d="M319.5 365.5C170.5 365.5 58.1667 444 0 484V678.5H1439.5V252C1416 258 1340.92 262.63 1239.5 339.5C1161 399 1067 486.5 846 486.5C625 486.5 477.5 365.5 319.5 365.5Z" fill="#5AAD7D"/>
<path d="M368 580.5C219 580.5 63 406 0 360V679H1439.5V566.5C1416 572.5 1325 573 1216.5 545C1121.12 520.387 1008 418.5 845.5 418.5C624.5 418.5 526 580.5 368 580.5Z" fill="#3D8361"/>
</svg>
