<svg width="27" height="34" viewBox="0 0 27 34" fill="none" xmlns="http://www.w3.org/2000/svg">
<circle cx="14" cy="13" r="10" fill="white"/>
<path fill-rule="evenodd" clip-rule="evenodd" d="M13.5 32.2995L14.6947 33.4997C14.538 33.6583 14.3516 33.7841 14.1465 33.87C13.9413 33.9558 13.7213 34 13.4992 34C13.277 34 13.057 33.9558 12.8518 33.87C12.6467 33.7841 12.4603 33.6583 12.3036 33.4997L12.2934 33.4878L12.2647 33.4589L12.1601 33.3518C11.5653 32.7345 10.9802 32.1077 10.4051 31.4716C8.9613 29.8779 7.57878 28.2288 6.26062 26.5281C4.75537 24.5731 3.21637 22.3632 2.04694 20.1804C0.902812 18.0401 0 15.7214 0 13.5998C0 5.88361 6.0615 0 13.5 0C20.9385 0 27 5.88361 27 13.5998C27 15.7214 26.0972 18.0401 24.9531 20.1787C23.7836 22.3649 22.2463 24.5731 20.7394 26.5281C18.8956 28.9075 16.9262 31.1853 14.8399 33.3518L14.7353 33.4589L14.7066 33.4878L14.6964 33.498L13.5 32.2995ZM13.5 18.6997C14.8427 18.6997 16.1303 18.1624 17.0797 17.206C18.0291 16.2496 18.5625 14.9524 18.5625 13.5998C18.5625 12.2472 18.0291 10.95 17.0797 9.99361C16.1303 9.03719 14.8427 8.49988 13.5 8.49988C12.1573 8.49988 10.8697 9.03719 9.92027 9.99361C8.97087 10.95 8.4375 12.2472 8.4375 13.5998C8.4375 14.9524 8.97087 16.2496 9.92027 17.206C10.8697 18.1624 12.1573 18.6997 13.5 18.6997Z" fill="#5ACB30"/>
</svg>
