<svg width="150" height="60" viewBox="0 0 150 60" fill="none" xmlns="http://www.w3.org/2000/svg">
<path d="M66.5015 37.1543C66.8037 37.3517 67.2068 37.6477 67.8114 37.9439C68.4159 38.2399 69.1213 38.5359 69.9274 38.8319C70.8342 39.128 71.7411 39.4241 72.8495 39.6214C73.9579 39.8188 75.167 39.9175 76.477 39.9175C78.7945 39.9175 80.4067 39.6214 81.4143 38.9307C82.4219 38.2399 82.9257 37.3517 82.9257 36.0688C82.9257 35.4767 82.825 34.9832 82.6235 34.5886C82.422 34.1938 82.0189 33.7991 81.6159 33.503C81.2128 33.2069 80.6082 33.0096 80.0037 32.8122C79.3991 32.6149 78.6937 32.5161 77.8876 32.3188L73.5548 31.5293C72.4465 31.3319 71.3381 31.0359 70.3304 30.7399C69.3228 30.3451 68.4159 29.8517 67.6098 29.2596C66.8037 28.6674 66.1992 27.9767 65.6954 27.0885C65.1916 26.2003 64.99 25.2135 64.99 23.9306C64.99 22.8451 65.1916 21.7596 65.5946 20.8714C65.9976 19.8845 66.703 18.9964 67.5091 18.3056C68.4159 17.6148 69.5244 17.0227 70.935 16.5293C72.3457 16.1346 73.9579 15.8385 75.9731 15.8385C77.3838 15.8385 78.6937 15.9372 79.7013 16.0358C80.709 16.1346 81.6159 16.332 82.4219 16.628C83.1273 16.8254 83.7319 17.1214 84.2357 17.3188C84.6387 17.5162 85.0418 17.7135 85.2433 17.9109C85.6463 18.2069 86.0497 18.503 86.2507 18.7991C86.5534 19.0951 86.6544 19.4899 86.6544 19.9833C86.6544 20.5753 86.4525 21.1675 86.0497 21.6609C85.6463 22.1543 85.3441 22.549 85.0418 22.7464C84.8402 22.4504 84.4372 22.1543 83.9334 21.8582C83.4296 21.5622 82.825 21.2662 82.0189 20.9701C81.3135 20.6741 80.4067 20.4767 79.3991 20.2793C78.3915 20.0819 77.2831 19.9833 76.0739 19.9833C74.8648 19.9833 73.8572 20.0819 73.0511 20.2793C72.245 20.4767 71.6404 20.6741 71.1365 21.0688C70.6327 21.3648 70.3304 21.7596 70.1289 22.253C69.9274 22.7464 69.8266 23.2398 69.8266 23.832C69.8266 24.8188 70.2296 25.6083 71.0358 26.1017C71.8419 26.6938 73.1518 27.0885 74.9655 27.4833L79.3991 28.2728C82.3211 28.7662 84.4372 29.6543 85.9487 30.8385C87.3591 32.0227 88.1657 33.7004 88.1657 35.9701C88.1657 37.253 87.9638 38.3385 87.46 39.3254C86.9563 40.3122 86.2507 41.2004 85.2433 41.8912C84.2357 42.582 83.0265 43.1741 81.6159 43.5688C80.2052 43.9635 78.4922 44.1609 76.6785 44.1609C75.0663 44.1609 73.6556 44.0623 72.3457 43.7662C71.0358 43.5688 69.8266 43.1741 68.819 42.878C67.8114 42.4833 66.9046 42.1872 66.1992 41.7925C65.4938 41.3978 64.99 41.1018 64.6877 40.9044L66.5015 37.1543Z" fill="white"/>
<path d="M91.7911 43.2728C91.7911 42.582 91.892 41.5952 91.892 40.3123C91.9929 39.0294 91.9929 37.6478 92.0939 36.0689C92.1948 34.4899 92.2948 32.911 92.3958 31.1346C92.4967 29.457 92.5976 27.7794 92.6985 26.2004C92.7995 24.6215 92.8995 23.2399 93.0005 21.9571C93.1014 20.6741 93.1014 19.6873 93.2023 19.0952C93.3032 18.207 93.6051 17.5162 94.1089 17.1215C94.7136 16.7267 95.3183 16.5294 96.1239 16.5294C96.9305 16.5294 97.6352 16.6281 98.1399 16.9241C98.6436 17.1215 99.0465 17.4175 99.2474 17.6149C99.5502 18.207 100.054 19.1938 100.659 20.4767C101.263 21.7597 101.968 23.1412 102.775 24.6215C103.48 26.1018 104.286 27.5821 104.992 29.0623C105.696 30.5426 106.402 31.7268 106.906 32.7136C107.309 31.8254 107.913 30.74 108.619 29.457C109.324 28.1741 109.928 26.7925 110.634 25.5096C111.339 24.1281 111.944 22.9439 112.549 21.7597C113.153 20.5754 113.556 19.6873 113.959 18.9964C114.362 18.207 114.765 17.7136 115.37 17.3188C115.974 16.9241 116.68 16.7267 117.486 16.7267C118.292 16.7267 118.897 16.8254 119.401 17.0228C119.904 17.2202 120.307 17.4175 120.408 17.5162C120.509 18.207 120.509 19.2926 120.61 20.6741C120.71 22.0557 120.811 23.536 120.912 25.2136C121.013 26.8912 121.114 28.6675 121.214 30.4438C121.315 32.3189 121.416 33.9965 121.517 35.6741C121.617 37.3518 121.717 38.832 121.818 40.2137C121.919 41.5952 121.919 42.582 122.02 43.3716H117.385C117.385 42.9768 117.285 42.286 117.285 41.2005C117.184 40.2137 117.184 39.0294 117.083 37.6478C116.982 36.2662 116.882 34.8847 116.882 33.4044C116.882 31.9242 116.68 30.5426 116.68 29.161C116.579 27.7794 116.478 26.6939 116.478 25.6084C116.377 24.6215 116.377 23.832 116.377 23.536C116.176 24.0294 115.773 24.6215 115.47 25.411C115.068 26.2004 114.665 26.9899 114.161 27.9767C113.657 28.8649 113.254 29.8518 112.75 30.8386C112.246 31.8254 111.742 32.8123 111.339 33.7005C110.836 34.5886 110.433 35.4768 110.029 36.2662C109.626 37.0558 109.324 37.6478 109.123 38.1412H104.891C104.588 37.4504 104.084 36.4636 103.48 35.2794C102.876 34.0952 102.17 32.7136 101.565 31.332C100.86 29.9504 100.155 28.5689 99.4493 27.1873C98.7437 25.8057 98.1399 24.6215 97.5352 23.6346C97.5352 24.2268 97.4343 25.115 97.4343 26.1018C97.3333 27.0886 97.3333 28.2729 97.2324 29.5557C97.1315 30.8386 97.1315 32.1215 97.0314 33.5031C96.9305 34.8847 96.8296 36.1676 96.8296 37.4504C96.7286 38.7334 96.7286 39.9175 96.6277 40.9044C96.5277 41.8913 96.5277 42.7794 96.5277 43.3716L91.7911 43.2728Z" fill="white"/>
<path d="M127.363 37.1543C127.665 37.3517 128.069 37.6477 128.673 37.9439C129.277 38.2399 129.983 38.5359 130.789 38.8319C131.696 39.128 132.603 39.4241 133.711 39.6214C134.82 39.8188 136.029 39.9175 137.338 39.9175C139.656 39.9175 141.269 39.6214 142.276 38.9307C143.284 38.2399 143.787 37.3517 143.787 36.0688C143.787 35.4767 143.686 34.9832 143.485 34.5886C143.284 34.1938 142.881 33.7991 142.478 33.503C142.074 33.2069 141.47 33.0096 140.866 32.8122C140.261 32.6149 139.555 32.5161 138.75 32.3188L134.417 31.5293C133.308 31.3319 132.2 31.0359 131.192 30.7399C130.185 30.3451 129.277 29.8517 128.472 29.2596C127.665 28.6674 127.061 27.9767 126.557 27.0885C126.053 26.2003 125.852 25.2135 125.852 23.9306C125.852 22.8451 126.053 21.7596 126.457 20.8714C126.86 19.8845 127.564 18.9964 128.371 18.3056C129.277 17.6148 130.386 17.0227 131.797 16.5293C133.207 16.1346 134.82 15.8385 136.835 15.8385C138.246 15.8385 139.555 15.9372 140.563 16.0358C141.57 16.2332 142.478 16.332 143.284 16.628C143.989 16.8254 144.594 17.1214 145.098 17.3188C145.5 17.5162 145.903 17.7135 146.105 17.9109C146.508 18.2069 146.911 18.503 147.113 18.7991C147.415 19.0951 147.516 19.4899 147.516 19.9833C147.516 20.5753 147.315 21.1675 146.911 21.6609C146.508 22.1543 146.206 22.549 145.903 22.7464C145.702 22.4504 145.299 22.1543 144.795 21.8582C144.291 21.5622 143.686 21.2662 142.881 20.9701C142.175 20.6741 141.269 20.4767 140.261 20.2793C139.253 20.0819 138.145 19.9833 136.936 19.9833C135.726 19.9833 134.719 20.0819 133.913 20.2793C133.107 20.4767 132.502 20.6741 131.998 21.0688C131.494 21.3648 131.192 21.7596 130.991 22.253C130.789 22.7464 130.689 23.2398 130.689 23.832C130.689 24.8188 131.092 25.6083 131.897 26.1017C132.704 26.6938 134.013 27.0885 135.827 27.4833L140.261 28.2728C143.183 28.7662 145.299 29.6543 146.811 30.8385C148.221 32.0227 149.027 33.7004 149.027 35.9701C149.027 37.253 148.826 38.3385 148.322 39.3254C147.818 40.3122 147.113 41.2004 146.105 41.8912C145.098 42.582 143.888 43.1741 142.478 43.5688C141.067 43.9635 139.354 44.1609 137.54 44.1609C135.928 44.1609 134.517 44.0623 133.207 43.7662C131.897 43.5688 130.689 43.1741 129.681 42.878C128.673 42.4833 127.766 42.1872 127.061 41.7925C126.356 41.3978 125.852 41.1018 125.549 40.9044L127.363 37.1543Z" fill="white"/>
<path d="M0.0994873 41.8914C0.0994873 43.9638 1.61093 46.4309 3.42465 47.4177L24.3833 59.2599C26.197 60.2467 29.1191 60.2467 30.9328 59.2599L51.8914 47.4177C53.7052 46.4309 55.2166 43.8651 55.2166 41.8914V25.7072C46.8533 25.0164 39.1954 27.8782 33.7541 33.4046L30.1267 37.0559C22.4687 44.7532 9.47038 43.8651 0.0994873 35.6743V41.8914Z" fill="white"/>
<path d="M0.100761 34.1941C8.46401 34.8849 16.122 32.0231 21.5632 26.4967L25.1906 22.8454C32.7479 15.1481 45.7462 16.0362 55.1171 24.227V18.1086C55.1171 16.0362 53.6057 13.5691 51.792 12.5823L30.8333 0.740134C29.0196 -0.246711 26.0975 -0.246711 24.2838 0.740134L3.32517 12.5823C1.51144 13.5691 0 16.1349 0 18.1086L0.100761 34.1941Z" fill="white"/>
</svg>
